<?xml version="1.0" standalone="no"?>
<!DOCTYPE svg PUBLIC "-//W3C//DTD SVG 20010904//EN"
 "http://www.w3.org/TR/2001/REC-SVG-20010904/DTD/svg10.dtd">
<svg version="1.0" xmlns="http://www.w3.org/2000/svg"
 width="300.000000pt" height="168.000000pt" viewBox="0 0 300.000000 168.000000"
 preserveAspectRatio="xMidYMid meet">

<g transform="translate(0.000000,168.000000) scale(0.100000,-0.100000)"
fill="#000000" stroke="none">
<path d="M0 840 l0 -840 1500 0 1500 0 0 840 0 840 -1500 0 -1500 0 0 -840z
m2455 723 c3 -14 2 -30 -4 -36 -5 -5 -7 -16 -4 -24 6 -16 -24 -53 -43 -53 -16
0 -75 -71 -68 -82 3 -4 -2 -8 -11 -8 -13 0 -12 5 6 30 21 28 34 84 17 74 -4
-3 -8 -13 -8 -22 0 -14 -2 -15 -10 -2 -12 19 -21 9 -22 -27 -1 -18 -10 -35
-27 -48 l-26 -19 19 22 c11 12 15 22 11 22 -5 0 -4 5 3 12 20 20 13 32 -8 13
-11 -10 -20 -24 -20 -31 0 -12 -38 -40 -44 -32 -2 2 -10 14 -19 28 -10 14 -17
18 -17 10 0 -9 -3 -10 -9 -4 -5 5 -7 21 -4 36 4 22 8 26 22 18 12 -6 27 -3 49
10 18 11 32 16 33 12 0 -4 4 2 9 13 4 11 5 32 3 48 -4 17 -1 27 6 27 7 0 9 -4
6 -10 -3 -5 -3 -10 2 -10 4 1 17 15 28 33 16 25 28 32 54 34 18 1 35 4 38 7
10 10 31 -13 38 -41z m-921 28 c4 0 6 -14 4 -30 -2 -17 -1 -28 4 -25 4 3 27
-13 51 -35 24 -23 53 -42 64 -44 12 -2 28 -9 37 -16 18 -15 22 -61 5 -61 -5 0
-7 -4 -4 -10 3 -5 13 -10 21 -10 8 0 12 5 9 11 -11 17 3 53 25 67 17 10 20 10
20 -4 0 -8 -4 -12 -10 -9 -5 3 -10 2 -10 -4 0 -5 9 -13 20 -16 25 -8 15 -29
-11 -22 -26 7 -24 -7 4 -21 45 -22 194 -45 202 -31 11 17 27 10 17 -8 -14 -23
26 -53 70 -53 18 0 58 -9 88 -21 37 -14 56 -17 58 -9 3 7 9 4 18 -7 11 -14 13
-15 14 -3 0 13 2 13 9 1 8 -12 12 -12 24 -2 10 8 17 9 22 1 10 -16 21 -12 54
16 29 24 31 25 28 5 -2 -11 -7 -24 -12 -28 -4 -5 -5 -2 -1 5 8 13 -10 17 -18
4 -7 -11 18 -57 30 -55 6 1 11 -7 11 -18 2 -16 -1 -18 -11 -9 -11 8 -16 4 -24
-19 -9 -26 -8 -28 9 -24 10 3 19 10 19 16 0 6 3 7 7 4 3 -4 13 -1 22 5 13 10
12 8 -1 -8 -11 -13 -15 -28 -11 -44 6 -22 5 -23 -10 -12 -9 8 -22 10 -29 6 -7
-4 -10 -4 -6 1 4 4 0 13 -8 20 -15 10 -15 14 1 44 15 30 15 34 1 50 -9 10 -13
21 -9 24 3 4 1 7 -5 7 -15 0 -16 -17 -2 -25 14 -9 12 -25 -3 -25 -8 0 -18 10
-24 23 -9 19 -18 22 -59 21 -27 0 -53 2 -59 6 -24 17 -95 39 -95 30 0 -6 -9
-10 -21 -10 -20 0 -19 -3 10 -35 17 -20 31 -40 31 -45 0 -5 15 -3 33 4 17 7
38 11 45 9 6 -3 12 0 12 6 0 6 16 11 35 11 25 0 35 -4 35 -16 0 -8 -4 -13 -9
-9 -5 3 -13 1 -16 -5 -4 -6 -3 -10 2 -9 4 1 20 1 36 0 27 -1 27 -1 12 -31 -16
-31 -29 -41 -19 -15 9 22 -44 31 -77 13 -25 -15 -26 -15 -22 3 7 24 -14 25
-39 2 -18 -16 -18 -16 -12 3 6 16 5 17 -7 6 -11 -10 -11 -16 -1 -32 10 -16 9
-18 -4 -13 -13 5 -15 -1 -13 -36 3 -34 -2 -46 -23 -68 l-27 -26 5 31 c4 25 2
32 -11 32 -10 0 -13 5 -9 13 4 6 4 9 -1 5 -4 -4 -14 -3 -22 4 -11 9 -12 7 -6
-8 6 -17 5 -17 -10 -6 -14 12 -16 9 -20 -25 -2 -21 -3 -11 -1 21 3 35 10 67
19 77 14 15 14 17 1 22 -8 3 -27 24 -41 47 -23 37 -28 40 -68 39 -23 -1 -33
-3 -22 -6 29 -7 43 -23 20 -23 -12 0 -16 -3 -10 -8 6 -4 12 -19 13 -33 1 -21
-4 -28 -23 -33 -14 -4 -36 -4 -49 0 -14 3 -37 -1 -55 -10 -28 -15 -35 -14 -32
7 0 4 -6 7 -14 7 -19 0 -19 11 0 36 17 23 19 34 5 34 -5 0 -10 -6 -10 -13 0
-7 -16 -21 -35 -31 -19 -10 -42 -27 -51 -37 -16 -18 -16 -19 2 -19 10 0 27 -7
36 -14 16 -12 16 -14 -8 -25 -14 -6 -29 -9 -34 -6 -5 3 -12 1 -15 -5 -4 -6 -3
-10 2 -9 4 1 17 0 28 -1 15 -1 16 -3 5 -7 -8 -4 -21 -12 -29 -20 -16 -17 -103
-13 -109 5 -4 14 -32 16 -32 3 0 -12 29 -41 41 -41 5 0 9 -8 10 -17 0 -11 3
-13 6 -5 2 6 19 12 36 11 27 0 29 -2 12 -9 -14 -5 -7 -8 28 -8 26 0 47 4 47 9
0 5 8 9 18 9 10 0 24 6 30 12 10 10 14 8 19 -10 3 -15 11 -21 20 -18 8 3 39 6
69 6 34 0 53 4 49 10 -3 6 -2 10 2 10 5 0 8 -19 8 -42 0 -24 6 -43 13 -46 6
-2 12 -8 12 -14 0 -5 7 -17 16 -25 14 -14 15 -12 9 23 l-7 39 32 -42 c25 -33
38 -43 61 -43 22 0 29 5 29 19 0 10 -7 24 -15 31 -9 7 -13 20 -11 29 2 9 7 39
11 66 l7 50 19 -65 c10 -36 18 -78 19 -93 0 -16 4 -26 10 -22 6 3 10 22 10 41
0 19 5 34 11 34 8 0 10 15 6 46 -2 26 -1 41 3 34 10 -16 19 -1 29 52 9 43 9
43 10 8 0 -19 -6 -46 -14 -60 -21 -36 -20 -38 29 -41 25 -2 42 0 38 5 -3 5 4
7 15 4 11 -3 28 1 37 8 10 7 25 10 34 7 9 -4 13 -2 9 4 -5 7 0 9 13 6 26 -7
53 4 45 18 -5 8 -10 8 -18 0 -6 -6 -16 -11 -22 -11 -5 0 -2 5 8 11 9 5 17 15
17 21 0 15 31 37 53 38 9 0 17 -5 17 -11 0 -6 -10 -8 -22 -5 -13 3 -17 3 -10
0 6 -3 12 -21 12 -40 0 -32 -2 -34 -32 -35 -18 0 -42 -4 -53 -9 -24 -10 60 -5
87 5 18 7 78 -14 78 -27 0 -14 -20 -19 -40 -8 -25 13 -100 20 -100 9 0 -10
-29 -7 -48 5 -8 5 -18 4 -25 -3 -6 -6 -20 -11 -31 -11 -16 0 -18 -2 -7 -9 8
-5 19 -8 25 -7 6 2 8 1 4 -1 -5 -3 -8 -13 -8 -24 0 -24 17 -24 142 -2 54 10
97 22 97 28 -5 42 2 55 29 55 40 0 51 11 40 39 -6 19 -11 22 -20 13 -7 -7 -21
-12 -31 -12 -16 0 -17 -3 -8 -14 9 -11 9 -15 -1 -18 -14 -5 -58 13 -58 24 0 4
-6 5 -13 2 -8 -3 -14 2 -14 11 0 13 3 13 26 -2 l26 -16 -19 27 c-24 37 -9 51
33 30 30 -15 36 -15 89 3 46 16 57 23 56 41 0 11 2 21 5 20 3 0 16 0 29 1 21
1 22 2 8 17 -21 21 -20 31 4 44 15 8 24 6 40 -10 20 -20 26 -41 13 -53 -3 -4
-12 1 -20 11 -11 14 -12 14 -7 1 6 -19 -23 -52 -41 -46 -8 4 -11 -8 -9 -36 6
-100 12 -129 34 -152 22 -23 22 -23 2 -34 -31 -16 -50 -13 -62 9 -15 29 -31
25 -71 -16 -18 -20 -61 -55 -94 -76 -34 -23 -49 -37 -35 -34 24 7 24 7 5 -8
-11 -9 -32 -28 -47 -42 -23 -22 -33 -25 -64 -20 -32 6 -34 9 -19 20 9 6 15 21
13 31 -2 16 4 21 38 25 43 6 124 51 184 101 l34 29 -59 0 c-64 0 -202 -23
-213 -35 -4 -4 5 -5 21 -1 15 3 27 5 27 2 0 -4 -70 -39 -85 -42 -6 -1 -37 -18
-69 -39 -46 -29 -60 -34 -67 -24 -6 10 -9 4 -9 -18 0 -41 -20 -85 -36 -79 -6
2 -16 0 -20 -4 -5 -5 -15 -5 -24 0 -12 8 -11 10 5 10 18 0 18 2 -5 19 -13 11
-28 17 -32 15 -9 -6 -18 12 -22 42 -2 14 -12 19 -39 20 -21 0 -37 -3 -37 -7 0
-10 -57 -29 -64 -22 -3 4 -6 2 -6 -3 0 -6 5 -15 12 -22 9 -9 5 -12 -18 -12
-72 -1 -66 -43 7 -53 47 -6 64 -19 56 -41 -9 -23 -82 -22 -97 2 -7 11 -10 12
-7 2 5 -19 -21 -45 -53 -55 -24 -8 -24 -9 10 -18 l35 -10 -35 -9 c-40 -11
-112 -76 -103 -92 3 -6 3 -8 -2 -4 -4 4 -19 -2 -33 -12 -34 -28 -105 -26 -162
3 -37 18 -45 27 -43 47 1 14 -1 19 -3 13 -10 -23 -31 -14 -31 12 0 13 3 22 8
20 4 -3 10 -1 14 5 3 5 -1 10 -9 10 -9 0 -26 10 -38 22 -13 13 -36 28 -53 33
-18 7 -29 17 -27 25 3 12 1 12 -9 3 -9 -9 -16 -10 -26 -2 -10 9 -15 5 -24 -17
-5 -16 -24 -42 -40 -58 -23 -22 -35 -27 -56 -22 -16 4 -35 8 -43 9 -8 1 -18 6
-21 10 -3 5 -9 -1 -12 -12 -3 -12 -2 -19 3 -16 10 6 22 -23 15 -35 -3 -5 -1
-11 4 -14 5 -4 12 -2 16 4 3 5 20 10 36 10 18 0 28 4 24 10 -4 6 8 10 30 10
25 0 43 -8 60 -25 14 -13 25 -21 25 -18 0 14 13 -8 25 -43 12 -35 11 -40 -7
-56 -31 -27 -86 -41 -130 -34 -34 6 -39 4 -35 -9 4 -8 3 -15 -1 -15 -4 1 -19
24 -33 53 -17 33 -32 52 -42 51 -10 -1 -17 4 -17 11 0 8 -8 11 -20 8 -12 -3
-29 2 -40 12 -11 10 -21 14 -21 9 -4 -31 -3 -40 4 -51 8 -12 -10 -29 -20 -19
-12 12 -4 119 12 167 18 54 33 69 46 48 6 -9 4 -15 -6 -17 -17 -4 -21 -22 -5
-22 6 0 8 -24 5 -60 -3 -47 -1 -60 10 -60 8 0 12 6 9 14 -7 19 27 136 38 130
4 -3 5 2 2 10 -5 14 -24 21 -47 17 -4 -1 -5 11 -2 26 5 25 4 25 -4 6 -10 -23
-51 -50 -51 -34 0 5 7 12 15 15 19 7 45 66 44 98 l0 23 -16 -22 c-8 -13 -21
-23 -29 -23 -7 0 -20 -10 -28 -22 -9 -12 -16 -17 -16 -10 0 8 -7 9 -24 2 -18
-6 -28 -5 -36 5 -14 16 -5 35 16 35 8 0 14 10 14 25 0 14 9 38 21 54 l21 28
-30 60 c-43 85 -47 87 -120 62 -34 -11 -62 -25 -62 -30 0 -5 -6 -9 -13 -9 -7
0 -24 -13 -39 -30 -14 -16 -32 -30 -40 -30 -7 0 -1 10 15 21 15 11 27 27 27
35 0 8 8 14 19 14 10 0 24 6 30 14 6 7 32 19 56 26 25 7 49 18 53 25 4 6 17
14 29 17 20 5 22 3 17 -26 -4 -20 -2 -26 3 -18 7 9 13 6 21 -13 7 -15 10 -31
6 -36 -3 -5 -1 -8 5 -7 5 2 17 -6 25 -17 13 -17 17 -18 25 -5 15 23 22 7 11
-29 l-9 -32 25 23 c29 26 66 97 58 109 -3 5 2 6 10 3 9 -3 14 -9 12 -13 -3 -4
-1 -13 5 -21 7 -13 9 -12 9 3 0 11 8 17 23 17 12 0 18 -4 12 -8 -5 -4 -11 -16
-11 -27 -1 -11 -5 -29 -9 -39 -6 -15 -5 -17 5 -11 9 5 11 4 6 -3 -4 -7 -14
-12 -22 -12 -10 0 -14 -8 -12 -21 2 -14 19 -27 51 -41 55 -24 68 -18 69 33 1
31 2 32 11 11 15 -33 30 -27 25 10 -4 22 1 38 14 52 10 12 15 22 9 24 -5 2 4
17 20 33 16 17 27 34 24 40 -4 5 -4 9 -1 9 3 0 20 -25 38 -56 l32 -57 18 24
c11 13 28 31 38 40 18 16 18 18 -25 65 -24 27 -44 57 -45 66 0 9 -5 20 -12 24
-7 5 -9 2 -4 -7 10 -19 -25 20 -45 52 l-17 24 -12 -43 c-8 -24 -16 -38 -20
-31 -12 18 -22 -8 -12 -28 14 -26 -19 -128 -36 -111 -18 18 -16 -29 3 -67 15
-29 15 -29 -3 -9 -10 11 -26 20 -36 18 -10 -1 -15 0 -12 3 3 4 1 12 -6 20 -8
10 -8 20 3 41 8 15 17 29 20 32 4 3 9 15 13 27 6 19 4 21 -24 18 -35 -5 -36
-2 -12 25 9 11 17 24 18 28 0 4 6 19 12 34 6 15 12 47 13 72 2 38 6 46 26 51
13 3 23 10 23 15 0 12 -11 12 -30 0 -11 -7 -17 -5 -21 8 -5 13 -11 8 -25 -23
-11 -22 -22 -41 -26 -43 -4 -2 -4 -11 -1 -20 4 -13 3 -14 -5 -3 -11 16 -19 4
-16 -26 0 -12 -3 -20 -7 -17 -5 3 -9 -4 -9 -15 0 -12 -4 -21 -10 -21 -13 0
-13 6 6 41 14 29 14 30 -3 21 -10 -6 -27 -20 -37 -31 -11 -12 -24 -21 -30 -21
-6 0 -3 5 7 11 13 7 17 22 16 57 -1 26 -4 38 -6 27 -3 -11 -9 -24 -13 -30 -5
-5 -14 -39 -21 -74 -9 -49 -9 -68 -1 -82 10 -15 8 -23 -8 -39 -23 -23 -36 -25
-46 -8 -4 7 -3 8 5 4 14 -9 41 11 41 31 0 8 -3 12 -7 10 -15 -9 -13 100 2 149
16 54 20 104 7 104 -5 0 -7 14 -4 31 l4 30 27 -25 c15 -14 37 -26 48 -26 52 0
70 -24 27 -34 -19 -5 -24 -11 -19 -24 4 -9 8 -22 8 -29 0 -8 6 -9 19 -2 20 11
25 39 6 39 -9 0 -8 3 2 9 8 6 17 8 22 5 4 -2 12 5 18 16 8 15 8 20 -2 21 -7 0
-5 4 6 8 32 12 46 61 30 106 -7 21 -20 43 -29 48 -11 6 -13 12 -6 21 7 8 6 21
-4 40 -8 16 -15 34 -15 42 0 7 -5 16 -12 20 -7 5 -8 3 -3 -7 8 -12 6 -12 -8
-1 -13 11 -14 17 -5 32 7 10 14 17 18 16 3 -2 13 -6 23 -9 13 -5 16 -11 8 -24
-9 -19 13 -51 24 -34 3 5 0 11 -7 13 -17 6 -2 38 18 38 14 0 15 -2 3 -17 -9
-10 -9 -14 -2 -10 7 5 16 -1 23 -13 11 -20 29 -23 42 -5 15 20 7 35 -17 35
-14 0 -25 2 -25 4 0 2 -2 11 -5 19 -4 10 3 14 30 15 32 1 35 -1 36 -26 1 -15
1 -30 0 -34 -2 -12 9 -9 24 6 8 7 12 16 9 19 -3 3 -1 8 5 12 7 4 10 -3 9 -19
-1 -13 -6 -22 -10 -20 -4 3 -8 -2 -8 -10 0 -8 5 -18 10 -21 6 -3 10 -1 10 5 0
6 4 9 9 6 4 -3 13 6 19 19 7 14 19 25 28 25 17 0 16 -21 -2 -80 -7 -22 -6 -23
8 -12 13 10 18 10 24 1 4 -8 3 -9 -4 -5 -7 4 -12 1 -12 -8 0 -20 28 -10 53 18
10 11 27 20 38 21 12 1 37 18 55 38 29 30 33 40 24 57 -31 62 -32 58 3 56 18
-2 36 -4 41 -5z m-775 -63 c-6 -23 -5 -36 5 -47 19 -23 9 -41 -23 -41 -26 0
-27 2 -25 43 3 59 2 57 19 57 8 0 15 7 15 16 0 8 4 13 9 9 6 -3 6 -18 0 -37z
m318 20 c-3 -8 -6 -5 -6 6 -1 11 2 17 5 13 3 -3 4 -12 1 -19z m875 -12 c10 6
11 4 1 -7 -21 -22 -15 -32 15 -25 15 4 48 9 74 11 45 4 49 3 63 -25 l16 -30
37 19 c43 21 62 18 62 -12 0 -15 -3 -18 -11 -10 -17 17 -88 -17 -95 -44 -8
-31 -22 -29 -16 2 2 15 0 25 -8 25 -7 0 -9 8 -5 20 5 16 2 20 -17 19 -21 0
-21 -1 -4 -8 14 -5 16 -10 8 -15 -7 -4 -9 -13 -5 -19 12 -19 3 -91 -14 -107
-14 -13 -14 -13 -4 7 14 28 -3 69 -31 76 -16 5 -17 3 -6 -11 11 -13 11 -15 -4
-9 -13 4 -18 1 -18 -10 0 -12 -3 -13 -14 -3 -8 6 -12 18 -9 26 4 10 -3 14 -22
14 -15 0 -24 -4 -20 -10 3 -5 1 -10 -5 -10 -6 0 -8 -5 -4 -12 5 -8 2 -9 -12
-3 -39 16 -66 18 -75 4 -6 -10 -8 -3 -7 21 2 25 -1 35 -12 36 -8 1 -19 2 -24
3 -5 0 -1 10 9 21 10 11 28 19 39 18 12 -2 22 2 23 7 1 6 -5 9 -12 9 -8 -1
-12 3 -8 9 4 7 0 8 -11 4 -10 -4 -22 -7 -27 -7 -5 0 -9 -6 -9 -14 0 -25 -18
-27 -39 -5 l-21 22 21 15 c26 18 135 32 149 18 6 -6 12 -3 16 9 7 17 8 16 16
-4 5 -14 13 -20 20 -15z m-685 8 c-3 -3 -12 -4 -19 -1 -8 3 -5 6 6 6 11 1 17
-2 13 -5z m-311 -29 c6 -14 8 -13 20 2 12 16 13 16 12 -10 -2 -25 -28 -45 -50
-39 -13 3 -9 -5 9 -19 11 -9 14 -10 9 -2 -5 9 -2 11 10 6 15 -6 14 -9 -9 -29
-27 -23 -27 -37 1 -27 10 4 13 2 8 -5 -6 -11 0 -12 57 -13 24 -1 41 -19 17
-19 -5 0 -10 -7 -10 -15 0 -8 8 -15 19 -15 23 0 45 -25 35 -41 -4 -8 -3 -9 4
-5 8 5 12 -2 11 -21 0 -25 -1 -26 -9 -8 -5 11 -9 14 -9 8 -1 -7 -6 -13 -12
-13 -5 0 -8 4 -4 9 3 6 -6 8 -21 5 -24 -4 -25 -3 -19 26 4 20 3 30 -5 30 -7 0
-10 7 -6 16 4 10 -5 6 -25 -10 -34 -29 -45 -32 -52 -13 -2 6 -7 9 -11 5 -4 -3
-3 -16 4 -27 11 -22 -3 -31 -16 -10 -4 8 -9 7 -14 -2 -6 -9 -12 -9 -25 4 -18
18 -12 37 10 37 19 0 27 16 20 39 -4 12 -19 21 -45 25 -21 3 -42 11 -45 16 -4
7 2 9 19 4 17 -4 31 -1 41 9 17 18 20 37 4 37 -5 0 -7 6 -4 13 4 6 -1 3 -9 -7
-14 -18 -16 -18 -16 -2 0 9 6 23 13 30 10 12 15 12 28 0 15 -13 18 -12 27 15
12 33 29 40 38 16z m377 8 c-7 -2 -21 -2 -30 0 -10 3 -4 5 12 5 17 0 24 -2 18
-5z m1188 -36 c-8 -8 -11 -7 -11 4 0 9 3 19 7 23 4 4 9 2 11 -4 3 -7 -1 -17
-7 -23z m-21 2 c0 -11 -4 -18 -10 -14 -5 3 -7 12 -3 20 7 21 13 19 13 -6z
m116 -14 c-9 -13 -16 -34 -16 -45 0 -13 -5 -20 -12 -17 -7 2 -13 9 -12 15 1 7
2 20 3 30 0 11 11 24 24 30 31 15 31 15 13 -13z m-949 -1 c-3 -3 -12 -4 -19
-1 -8 3 -5 6 6 6 11 1 17 -2 13 -5z m917 -73 c20 -17 21 -41 1 -41 -8 0 -15 5
-15 11 0 5 -4 8 -9 4 -5 -3 -13 0 -17 7 -5 8 -10 6 -15 -8 -7 -16 -8 -15 -8 7
-1 14 2 29 5 32 10 9 40 3 58 -12z m97 -10 c6 11 9 9 9 -7 0 -16 -6 -21 -24
-21 -22 0 -23 2 -13 18 7 11 14 14 16 8 2 -8 6 -7 12 2z m-667 -26 c3 -8 1
-15 -4 -15 -6 0 -10 7 -10 15 0 8 2 15 4 15 2 0 6 -7 10 -15z m-1363 -24 l24
-20 -46 -12 c-36 -10 -46 -16 -41 -28 5 -14 3 -14 -10 -3 -10 8 -18 9 -22 3
-4 -6 -14 -7 -23 -4 -9 4 -14 2 -10 -3 4 -7 -12 -9 -41 -6 -26 2 -54 4 -62 4
-24 0 -21 34 4 46 17 8 27 5 49 -14 34 -29 47 -30 47 -5 0 26 46 61 80 61 15
0 38 -9 51 -19z m1509 -4 c0 -7 -4 -6 -11 3 -9 12 -10 11 -6 -6 3 -13 -1 -21
-9 -21 -17 0 -18 19 -2 35 13 13 28 7 28 -11z m138 -32 c-3 -51 -16 -58 -71
-37 -55 21 -74 36 -58 46 6 4 11 2 11 -3 0 -6 9 -11 20 -11 11 0 20 4 20 8 0
8 45 29 68 31 8 1 12 -11 10 -34z m117 25 c4 -6 -6 -10 -22 -10 -22 0 -25 2
-13 10 19 12 27 12 35 0z m-1420 -30 c-18 -20 -18 -21 1 -35 15 -11 16 -14 3
-15 -29 0 -39 21 -22 46 8 13 20 24 26 24 5 0 2 -9 -8 -20z m1493 -9 c10 -6
10 -10 -3 -21 -13 -11 -18 -11 -28 0 -9 10 -9 11 1 6 6 -4 12 -3 12 3 0 5 -6
12 -12 14 -9 4 -8 6 2 6 8 0 21 -3 28 -8z m-1828 -11 c-20 -13 -33 -13 -25 0
3 6 14 10 23 10 15 0 15 -2 2 -10z m25 -37 c7 -16 9 -42 6 -75 -1 -9 -4 -9
-10 2 -6 8 -7 18 -5 22 3 4 1 8 -5 8 -5 0 -8 9 -6 20 3 14 -2 20 -13 20 -15 0
-15 2 -2 10 21 14 27 12 35 -7z m-80 -3 c-3 -5 -16 -10 -28 -9 -20 1 -20 2 3
9 14 4 26 8 28 9 2 1 0 -3 -3 -9z m175 0 c0 -5 -5 -10 -11 -10 -5 0 -7 5 -4
10 3 6 8 10 11 10 2 0 4 -4 4 -10z m-255 -10 c-3 -5 -12 -10 -18 -10 -7 0 -6
4 3 10 19 12 23 12 15 0z m555 6 c0 -9 -40 -13 -46 -5 -3 5 6 9 20 9 14 0 26
-2 26 -4z m1351 -13 c13 -16 12 -17 -3 -4 -17 13 -22 21 -14 21 2 0 10 -8 17
-17z m-1801 -3 c-8 -5 -19 -10 -25 -10 -5 0 -3 5 5 10 8 5 20 10 25 10 6 0 3
-5 -5 -10z m120 -67 c-11 -17 -11 -17 -6 0 3 10 7 26 7 35 1 15 2 15 6 0 2
-10 -1 -25 -7 -35z m100 37 c0 -5 -5 -10 -11 -10 -5 0 -7 5 -4 10 3 6 8 10 11
10 2 0 4 -4 4 -10z m1109 -78 c-1 -15 -2 -15 -6 1 -2 9 -9 14 -15 11 -7 -4 -8
-2 -4 5 10 15 26 4 25 -17z m268 -23 c-15 -11 -27 -28 -28 -37 0 -12 -2 -13
-6 -4 -5 14 46 76 55 67 3 -3 -7 -14 -21 -26z m353 7 c0 -8 -60 -12 -72 -4 -8
4 4 8 30 8 23 0 42 -2 42 -4z m-1830 -25 c24 -11 55 -17 69 -15 25 4 25 3 7
-11 -25 -19 -29 -19 -73 5 -48 26 -65 25 -91 -3 -19 -21 -20 -25 -8 -42 13
-18 16 -18 33 -5 10 8 28 20 40 27 20 11 22 10 28 -18 6 -25 11 -30 28 -25 27
7 48 -10 40 -32 -5 -15 -3 -14 15 2 12 11 22 14 22 8 0 -6 -6 -12 -12 -15 -10
-3 -10 -9 0 -26 10 -18 10 -21 -4 -21 -8 0 -13 4 -9 9 9 15 -59 61 -99 68 -46
7 -78 -2 -115 -33 -21 -17 -31 -35 -31 -54 0 -16 -7 -30 -16 -34 -8 -3 -12 -2
-9 3 3 5 1 12 -5 16 -5 3 -10 1 -10 -4 0 -6 -7 -11 -15 -11 -8 0 -15 -7 -15
-15 0 -8 -9 -19 -20 -25 -11 -6 -31 -22 -45 -36 -14 -14 -30 -22 -35 -19 -6 4
-26 1 -46 -5 -56 -19 -51 -4 6 16 52 19 80 47 59 59 -15 10 -61 -4 -54 -15 3
-6 1 -10 -4 -10 -6 0 -11 5 -11 11 0 8 -4 9 -13 0 -8 -6 -17 -8 -21 -4 -12 12
37 53 72 59 20 4 29 10 22 14 -8 5 -2 10 15 14 15 4 33 2 40 -4 10 -8 15 -8
21 1 5 8 3 10 -7 4 -8 -5 -11 -5 -7 0 4 4 2 15 -4 24 -7 9 -1 6 13 -6 30 -28
65 -30 71 -5 5 18 -15 45 -26 35 -3 -4 -6 -1 -6 5 0 15 -46 16 -55 2 -3 -5
-18 -10 -33 -10 l-26 0 23 16 c37 26 93 35 117 19 12 -8 24 -11 28 -8 11 11
-46 33 -84 33 -22 0 -45 -7 -54 -16 -9 -8 -20 -13 -25 -10 -12 8 -29 -14 -35
-46 -4 -22 -1 -26 12 -21 14 5 14 3 -2 -15 -19 -22 -43 -31 -31 -12 3 6 2 10
-4 10 -5 0 -13 -4 -16 -10 -3 -5 -1 -10 5 -10 6 0 8 -4 5 -10 -14 -23 -27 -9
-21 23 3 17 7 38 8 45 1 7 7 11 14 8 9 -3 11 1 7 11 -4 11 -2 14 5 9 7 -4 10
-2 7 6 -5 15 2 27 29 48 12 9 17 10 12 3 -10 -17 4 -16 28 2 26 19 80 19 96 0
20 -24 44 -17 88 25 46 46 54 47 112 21z m1072 -38 c25 -25 5 -51 -42 -56 -20
-2 -42 -7 -49 -12 -10 -5 -20 -1 -33 15 -18 23 -18 23 2 45 17 18 18 24 7 33
-8 7 -18 8 -22 4 -5 -4 -5 -2 -2 4 9 16 115 -10 139 -33z m498 27 c13 -8 13
-10 -1 -10 -19 0 -33 -26 -23 -42 4 -6 1 -8 -7 -6 -15 6 -15 11 -3 43 l7 20
-24 -20 -24 -20 19 23 c21 24 33 27 56 12z m-1280 -66 c0 -15 -4 -23 -11 -19
-6 4 -17 -1 -25 -11 -9 -11 -13 -14 -10 -8 3 6 10 23 15 38 13 33 31 34 31 0z
m1225 4 c4 -3 2 -9 -3 -12 -5 -3 -15 1 -21 8 -10 11 -9 14 3 12 9 -1 18 -5 21
-8z m-107 -20 c-6 -18 -28 -21 -28 -4 0 9 7 16 16 16 9 0 14 -5 12 -12z
m-1182 -25 c-10 -10 -19 5 -10 18 6 11 8 11 12 0 2 -7 1 -15 -2 -18z m1694
-40 c0 -20 -18 -16 -30 6 -16 31 -12 42 10 24 11 -10 20 -23 20 -30z m-2367
-10 c-50 -88 -63 -108 -63 -100 0 13 51 111 68 130 26 29 24 19 -5 -30z m710
21 c-6 -16 -23 -19 -23 -4 0 6 -4 10 -10 10 -5 0 -10 -6 -10 -14 0 -20 -17
-29 -26 -15 -4 8 -3 9 4 5 8 -5 12 0 12 13 0 21 16 30 42 23 9 -2 14 -10 11
-18z m191 -5 c-9 -15 -34 -10 -28 5 3 8 12 12 20 9 8 -3 11 -9 8 -14z m711 3
c-3 -3 -11 0 -18 7 -9 10 -8 11 6 5 10 -3 15 -9 12 -12z m-1340 -98 c-11 -8
-27 -20 -35 -27 -9 -8 -25 -10 -40 -6 -27 7 -26 8 45 33 52 18 54 18 30 0z
m1628 -118 c1 -5 -11 -10 -26 -10 -26 -2 -27 0 -11 11 19 14 34 13 37 -1z
m-237 -98 l29 -33 -32 29 c-31 28 -38 36 -30 36 2 0 16 -15 33 -32z m154 -19
c36 -77 77 -100 98 -54 6 14 8 25 3 25 -11 0 -24 31 -16 38 3 3 14 -3 25 -13
24 -21 74 -30 67 -12 -2 7 -1 20 2 30 6 15 9 16 26 3 17 -12 18 -17 7 -41 -7
-14 -9 -32 -5 -38 4 -6 8 -26 10 -44 4 -32 3 -33 -37 -33 -23 0 -39 -4 -36 -8
3 -5 20 -7 38 -6 33 2 75 -13 64 -23 -3 -3 -11 -1 -18 5 -10 7 -20 4 -41 -14
-15 -13 -24 -24 -18 -24 6 0 20 -10 31 -22 17 -18 23 -20 29 -9 6 8 14 10 22
5 12 -6 12 -5 1 8 -8 10 -9 19 -3 22 5 3 12 0 14 -6 3 -8 6 -6 6 5 1 9 6 17
12 17 6 0 8 -9 4 -21 -5 -14 0 -27 14 -40 25 -23 27 -47 5 -77 -21 -31 -59
-28 -92 7 -17 18 -42 32 -67 37 -22 4 -58 19 -80 33 -22 14 -47 29 -55 34 -9
4 -5 5 10 2 42 -10 54 -13 74 -21 16 -6 16 -3 -5 28 -14 21 -42 43 -71 57 -47
21 -62 50 -23 43 10 -2 21 2 26 9 8 13 -9 59 -22 59 -4 0 -14 20 -22 45 -21
61 -6 57 23 -6z m-1226 8 c-7 -18 -24 -23 -24 -8 0 22 13 42 22 33 5 -5 6 -16
2 -25z m1152 -34 c-3 -3 -16 -1 -28 5 l-23 12 23 -6 c14 -3 22 -1 23 8 0 11 2
11 6 0 3 -7 2 -16 -1 -19z m-76 -27 c-20 -54 -72 -136 -82 -129 -7 3 -8 1 -4
-6 9 -14 -13 -35 -38 -38 -20 -1 -48 26 -40 38 2 4 -3 9 -11 13 -26 10 -18 45
13 51 15 4 39 13 55 21 15 8 32 12 39 8 6 -4 8 -3 4 4 -3 6 4 18 16 27 20 13
21 17 8 25 -11 7 -7 10 17 10 30 0 32 -2 23 -24z m24 -87 c-43 -85 -65 -80
-33 7 44 119 41 114 50 74 6 -27 2 -44 -17 -81z m-706 22 c54 -61 74 -112 51
-126 -9 -6 -11 -4 -6 8 4 10 -3 21 -17 31 -13 8 -26 27 -29 43 -3 15 -16 39
-29 53 -13 14 -32 36 -43 49 l-20 24 20 -11 c11 -6 44 -37 73 -71z m-307 -134
c9 -7 19 -25 23 -42 7 -27 6 -28 -6 -11 -14 17 -15 17 -31 -8 -9 -14 -17 -31
-17 -37 0 -25 -10 -1 -19 44 -11 61 11 84 50 54z m1028 -24 c15 3 33 1 41 -4
11 -8 9 -9 -10 -5 -25 6 -25 6 -2 -5 12 -7 22 -18 22 -26 0 -15 -16 -17 -25
-3 -3 6 -12 10 -18 9 -9 0 -8 -2 1 -6 6 -2 10 -9 6 -14 -12 -20 -35 -7 -54 31
-24 47 -27 74 -4 41 13 -17 23 -22 43 -18z m-716 10 c-7 -2 -19 -2 -25 0 -7 3
-2 5 12 5 14 0 19 -2 13 -5z m167 -33 c0 -5 -4 -10 -10 -10 -5 0 -10 -8 -10
-17 0 -12 -3 -14 -10 -7 -14 14 -2 44 16 44 8 0 14 -4 14 -10z m-191 -112
c-12 -21 -13 -22 -17 -4 -2 11 2 38 9 60 l14 41 3 -37 c2 -20 -3 -47 -9 -60z"/>
<path d="M2423 1579 c-1 -10 2 -19 8 -19 11 0 12 27 1 34 -4 2 -9 -4 -9 -15z"/>
<path d="M2250 1446 c-8 -10 -7 -15 4 -19 8 -3 19 0 26 7 8 10 7 15 -4 19 -8
3 -19 0 -26 -7z"/>
<path d="M1293 1478 c-2 -18 0 -20 7 -8 12 18 13 30 2 30 -4 0 -9 -10 -9 -22z"/>
<path d="M1555 1469 c-5 -15 2 -29 27 -54 18 -19 40 -35 48 -35 12 0 12 2 2 8
-7 5 -10 16 -6 25 3 10 1 17 -6 17 -6 0 -8 5 -4 12 5 8 2 9 -12 4 -10 -4 -15
-4 -12 0 9 8 -9 44 -22 44 -5 0 -12 -9 -15 -21z"/>
<path d="M1103 1459 c-8 -8 -6 -22 6 -50 9 -21 19 -39 23 -39 3 0 11 14 17 31
9 26 8 30 -4 25 -9 -3 -15 0 -15 8 0 10 7 12 23 9 22 -5 22 -5 2 10 -24 19
-37 21 -52 6z"/>
<path d="M1473 1463 c9 -8 -24 -32 -44 -33 -26 0 -42 -25 -26 -38 11 -9 19 -5
36 18 12 17 30 30 41 30 11 0 20 7 20 15 0 8 -7 15 -17 15 -9 0 -13 -3 -10 -7z"/>
<path d="M1262 1443 c-19 -4 -23 -9 -18 -29 4 -14 2 -24 -4 -24 -5 0 -10 5
-10 11 0 5 -5 7 -10 4 -6 -4 -9 -1 -8 5 4 16 -30 22 -39 8 -3 -7 -1 -8 5 -4 8
5 11 -1 9 -16 -2 -19 2 -22 22 -20 16 3 21 0 16 -8 -4 -6 -17 -9 -30 -6 -17 4
-27 -1 -41 -22 -15 -24 -15 -25 -1 -13 20 16 42 3 52 -30 4 -11 11 -17 16 -13
6 3 17 0 25 -7 22 -18 28 -4 14 30 -10 25 -9 34 4 53 13 18 16 19 16 5 0 -9 6
-17 14 -17 8 0 26 -14 40 -31 14 -17 26 -29 26 -27 -3 15 -29 101 -29 94 -1
-5 -10 -1 -21 9 -14 13 -20 14 -20 5 0 -7 -2 -11 -5 -8 -3 3 -1 17 4 32 6 14
7 25 3 25 -4 -1 -18 -4 -30 -6z"/>
<path d="M1510 1442 c0 -5 7 -25 15 -43 l15 -34 -3 39 c-1 22 -8 41 -15 44 -7
2 -12 -1 -12 -6z"/>
<path d="M1717 1243 c-9 -19 -13 -32 -7 -28 6 3 13 -1 16 -9 10 -27 39 -27 99
2 l59 29 -49 6 c-33 3 -53 1 -57 -6 -4 -7 -8 -8 -8 -2 0 5 -5 4 -12 -3 -7 -7
-19 -12 -27 -11 -11 0 -8 4 7 11 25 13 27 21 10 36 -10 7 -18 1 -31 -25z"/>
<path d="M1601 1235 c-10 -23 -14 -26 -21 -15 -8 13 -10 12 -10 -3 0 -14 5
-16 27 -11 l27 7 -22 -23 c-12 -13 -22 -30 -22 -37 0 -7 -5 -13 -12 -13 -6 0
-9 -3 -5 -6 9 -9 97 34 97 48 0 7 -9 19 -19 25 -11 7 -21 23 -23 35 -4 22 -5
21 -17 -7z"/>
<path d="M1330 1235 c-6 -8 -10 -19 -8 -24 1 -6 8 1 15 14 13 28 11 31 -7 10z"/>
<path d="M1430 1205 c-14 -16 -3 -20 19 -6 8 5 9 11 3 15 -5 3 -15 -1 -22 -9z"/>
<path d="M1225 1200 c-3 -5 -1 -10 4 -10 6 0 11 5 11 10 0 6 -2 10 -4 10 -3 0
-8 -4 -11 -10z"/>
<path d="M1170 1175 c0 -5 5 -17 10 -25 5 -8 10 -10 10 -5 0 6 -5 17 -10 25
-5 8 -10 11 -10 5z"/>
<path d="M1322 1155 c0 -16 2 -22 5 -12 2 9 2 23 0 30 -3 6 -5 -1 -5 -18z"/>
<path d="M1346 1162 c-2 -4 4 -8 14 -8 10 0 16 4 14 8 -3 4 -9 8 -14 8 -5 0
-11 -4 -14 -8z"/>
<path d="M2200 1149 c0 -5 5 -7 10 -4 6 3 10 8 10 11 0 2 -4 4 -10 4 -5 0 -10
-5 -10 -11z"/>
<path d="M1485 1117 c-11 -26 19 -57 37 -38 11 10 10 12 -1 9 -8 -2 -17 8 -21
22 -6 22 -8 23 -15 7z"/>
<path d="M1560 1107 c-9 -7 -22 -31 -29 -55 l-14 -42 -24 22 c-12 12 -23 32
-23 45 0 13 -5 23 -11 23 -7 0 -9 -9 -5 -22 3 -13 6 -30 6 -38 0 -19 70 -50
108 -49 24 1 23 2 -8 8 l-35 7 28 7 28 8 -23 20 -23 20 41 -6 c26 -4 45 -2 49
4 4 7 -5 11 -23 11 -35 0 -45 9 -30 27 15 18 7 24 -12 10z"/>
<path d="M1321 1100 c0 -8 6 -26 14 -40 8 -14 14 -19 14 -10 0 8 -6 26 -14 40
-8 14 -14 19 -14 10z"/>
<path d="M1497 1049 c7 -7 15 -10 18 -7 3 3 -2 9 -12 12 -14 6 -15 5 -6 -5z"/>
<path d="M2554 941 c-16 -22 -38 -42 -49 -44 -11 -2 3 -5 30 -6 l50 -1 0 45
c0 25 0 45 -1 45 0 0 -13 -18 -30 -39z"/>
<path d="M2128 858 c-37 -41 -48 -71 -28 -83 14 -8 51 18 45 32 -2 7 1 13 7
13 13 0 58 47 58 61 0 5 -4 9 -9 9 -5 0 -15 2 -23 4 -7 3 -30 -14 -50 -36z"/>
<path d="M1481 834 c0 -11 3 -14 6 -6 3 7 2 16 -1 19 -3 4 -6 -2 -5 -13z"/>
<path d="M976 790 c-14 -22 -22 -40 -16 -40 5 0 13 -1 16 -2 6 -3 35 74 30 79
-2 2 -15 -15 -30 -37z"/>
<path d="M2185 814 c-13 -10 -15 -14 -4 -14 20 0 43 16 32 23 -4 3 -17 -1 -28
-9z"/>
<path d="M1215 813 c3 -3 -3 -15 -12 -26 -10 -11 -13 -17 -6 -14 9 6 9 0 0
-24 -11 -29 -12 -30 -18 -7 -5 22 -5 22 -11 -5 -3 -15 -1 -30 3 -33 5 -3 5
-14 -1 -24 -14 -27 -14 -27 28 -50 20 -11 48 -28 62 -37 25 -17 25 -17 -2 13
l-26 29 18 35 c28 52 25 90 -10 123 -17 15 -28 24 -25 20z"/>
<path d="M2069 795 c-4 -11 -7 -33 -7 -50 -1 -30 -1 -30 9 -5 5 13 8 36 7 50
-3 22 -4 23 -9 5z"/>
<path d="M1978 788 c-26 -9 -26 -9 -11 -46 15 -37 50 -78 59 -70 2 3 -5 13
-16 23 -11 10 -20 25 -20 34 0 12 3 12 12 3 18 -18 23 -15 25 22 3 39 -9 47
-49 34z"/>
<path d="M1435 760 c3 -5 -2 -10 -11 -10 -14 0 -15 -3 -7 -11 16 -16 44 -4 37
16 -3 8 -10 15 -16 15 -5 0 -6 -4 -3 -10z"/>
<path d="M1488 738 c-7 -17 8 -46 18 -35 4 4 3 17 -3 29 -7 17 -11 19 -15 6z"/>
<path d="M1302 700 c2 -8 10 -15 18 -15 8 0 16 7 18 15 2 10 -5 16 -18 16 -13
0 -20 -6 -18 -16z"/>
<path d="M1637 689 c7 -7 15 -10 18 -7 3 3 -2 9 -12 12 -14 6 -15 5 -6 -5z"/>
<path d="M975 668 c-4 -13 -15 -32 -24 -43 -15 -18 -15 -19 2 -6 23 18 72 -1
63 -25 -3 -9 1 -22 9 -30 8 -9 15 -13 15 -9 0 3 9 1 21 -5 16 -9 25 -8 40 6
22 20 25 36 6 28 -8 -3 -20 2 -27 11 -10 12 -10 18 0 30 9 10 9 15 1 16 -6 1
-19 2 -28 3 -32 3 -63 17 -58 26 3 5 1 11 -4 14 -5 4 -13 -4 -16 -16z"/>
<path d="M1381 661 c-6 -10 -7 -21 -4 -25 10 -10 45 -7 38 3 -3 5 -1 12 5 16
6 4 8 11 5 16 -10 15 -34 10 -44 -10z"/>
<path d="M1300 640 c6 -11 13 -20 16 -20 2 0 0 9 -6 20 -6 11 -13 20 -16 20
-2 0 0 -9 6 -20z"/>
<path d="M1462 634 c4 -24 20 -27 43 -8 11 8 14 13 8 9 -7 -3 -22 -1 -34 5
-18 10 -20 9 -17 -6z"/>
<path d="M1683 540 c-34 -14 -28 -21 7 -9 17 6 30 13 30 15 0 6 -12 4 -37 -6z"/>
<path d="M1880 1542 c0 -5 7 -15 15 -22 8 -7 15 -8 15 -2 0 5 -7 15 -15 22 -8
7 -15 8 -15 2z"/>
<path d="M1864 1469 c-3 -5 -2 -9 3 -8 21 4 32 -2 27 -15 -3 -8 0 -17 7 -22 8
-4 10 -3 5 4 -4 8 3 16 20 22 15 6 25 12 23 14 -11 9 -79 13 -85 5z"/>
<path d="M1990 1455 c12 -15 30 -12 30 6 0 5 -10 9 -21 9 -18 0 -19 -2 -9 -15z"/>
<path d="M1841 1449 c-1 -23 25 -44 35 -28 4 8 3 9 -5 5 -7 -4 -15 2 -20 16
-7 15 -10 17 -10 7z"/>
<path d="M2038 1412 c9 -10 19 -17 21 -16 6 5 -20 34 -30 34 -5 0 -1 -8 9 -18z"/>
<path d="M600 1323 c0 -17 15 -16 30 1 9 12 8 15 -9 13 -12 -1 -21 -7 -21 -14z"/>
<path d="M2280 501 c0 -6 -7 -8 -15 -5 -9 4 -15 0 -15 -10 0 -20 17 -21 36 -2
9 9 10 17 4 21 -5 3 -10 2 -10 -4z"/>
<path d="M2140 470 c0 -13 28 -25 38 -16 3 4 0 11 -8 16 -20 13 -30 12 -30 0z"/>
<path d="M2226 431 c-18 -7 -18 -8 4 -24 24 -17 51 -10 66 16 5 9 4 9 -6 0
-11 -10 -17 -10 -29 1 -10 8 -24 11 -35 7z"/>
<path d="M1790 430 c0 -5 5 -10 10 -10 6 0 10 5 10 10 0 6 -4 10 -10 10 -5 0
-10 -4 -10 -10z"/>
<path d="M1815 390 c3 -5 14 -10 23 -10 15 0 15 2 2 10 -20 13 -33 13 -25 0z"/>
</g>
</svg>
